<svg width="112" height="28" viewBox="0 0 112 28" fill="none" xmlns="http://www.w3.org/2000/svg">
<path d="M44.6483 24.3113H43.3884V23.394H47.0467V24.3113H45.7869V27.7903H44.6536V24.3113H44.6483Z" fill="#00ABB1"/>
<path d="M48.6386 26.5988C48.6386 26.7042 48.665 26.7781 48.7177 26.8202C48.7704 26.8571 48.8336 26.8782 48.9022 26.8782H51.1794V27.7954H48.3803C48.2801 27.7954 48.18 27.7743 48.0799 27.7322C47.9797 27.69 47.8848 27.6373 47.7952 27.5688C47.7109 27.5002 47.6371 27.4212 47.5843 27.3368C47.5264 27.2472 47.5 27.1576 47.5 27.068V24.1371C47.5 24.0422 47.5264 23.9526 47.5843 23.8683C47.6423 23.7787 47.7109 23.7049 47.7952 23.6363C47.8795 23.5678 47.9744 23.5151 48.0799 23.4729C48.18 23.4308 48.2801 23.4097 48.3803 23.4097H51.1794V24.3269H48.9022C48.8336 24.3269 48.7704 24.348 48.7177 24.3849C48.665 24.4218 48.6386 24.4956 48.6386 24.6063V25.1492H51.1794V26.0664H48.6386V26.6146V26.5988Z" fill="#00ABB1"/>
<path d="M52.7714 26.5988C52.7714 26.7042 52.7978 26.7781 52.8505 26.8202C52.9032 26.8571 52.9665 26.8782 53.035 26.8782H55.3122V27.7954H52.5131C52.413 27.7954 52.3128 27.7743 52.2127 27.7322C52.1125 27.69 52.0176 27.6373 51.928 27.5688C51.8437 27.5002 51.7699 27.4212 51.7172 27.3368C51.6592 27.2472 51.6328 27.1576 51.6328 27.068V24.1371C51.6328 24.0422 51.6592 23.9526 51.7172 23.8683C51.7751 23.7787 51.8437 23.7049 51.928 23.6363C52.0123 23.5678 52.1072 23.5151 52.2127 23.4729C52.3128 23.4308 52.413 23.4097 52.5131 23.4097H55.3122V24.3269H53.035C52.9665 24.3269 52.9032 24.348 52.8505 24.3849C52.7978 24.4218 52.7714 24.4956 52.7714 24.6063V26.6146V26.5988Z" fill="#00ABB1"/>
<path d="M55.7654 23.3989H56.8987V25.1332H58.6593V23.3989H59.7927V27.7952H58.6593V26.0504H56.8987V27.7952H55.7654V23.3989Z" fill="#00ABB1"/>
<path d="M61.3848 24.3113V27.7903H60.2515V23.394H63.4037C63.4986 23.394 63.5935 23.4151 63.6989 23.4573C63.8043 23.4995 63.8992 23.5522 63.9836 23.6207C64.0679 23.6892 64.1417 23.7683 64.1944 23.8526C64.2524 23.9423 64.2788 24.0319 64.2788 24.1215V27.7851H63.1454V24.5854C63.1454 24.4852 63.1191 24.4167 63.0716 24.3745C63.0242 24.3323 62.9715 24.3113 62.9082 24.306H61.3848V24.3113Z" fill="#00ABB1"/>
<path d="M68.7646 24.1317V27.0626C68.7646 27.1575 68.7383 27.2471 68.6803 27.3314C68.6223 27.4211 68.5538 27.5001 68.4694 27.5634C68.3851 27.6319 68.2902 27.6846 68.1848 27.7268C68.0793 27.769 67.9792 27.7901 67.8896 27.7901H65.6176C65.5175 27.7901 65.4173 27.769 65.3172 27.7268C65.217 27.6846 65.1221 27.6319 65.0325 27.5634C64.9482 27.4949 64.8744 27.4158 64.8216 27.3314C64.7637 27.2418 64.7373 27.1522 64.7373 27.0626V24.1317C64.7373 24.0369 64.7637 23.9473 64.8216 23.8629C64.8796 23.7733 64.9482 23.6995 65.0325 23.631C65.1169 23.5624 65.2117 23.5097 65.3172 23.4676C65.4173 23.4254 65.5175 23.4043 65.6176 23.4043H67.8896C67.9845 23.4043 68.0793 23.4254 68.1848 23.4676C68.2902 23.5097 68.3851 23.5624 68.4694 23.631C68.5538 23.6995 68.6276 23.7786 68.6803 23.8629C68.7383 23.9525 68.7646 24.0421 68.7646 24.1317ZM65.8707 24.5903V26.5987C65.8707 26.7042 65.897 26.778 65.9497 26.8201C66.0024 26.857 66.0657 26.8781 66.1342 26.8781H67.3941C67.452 26.8781 67.5048 26.8518 67.5575 26.8096C67.6049 26.7674 67.6313 26.6989 67.6313 26.5987V24.5903C67.6313 24.4902 67.6049 24.4217 67.5575 24.3795C67.51 24.3373 67.4573 24.3162 67.3941 24.311H66.1342C66.0657 24.311 66.0024 24.3321 65.9497 24.369C65.897 24.4059 65.8707 24.4796 65.8707 24.5903Z" fill="#00ABB1"/>
<path d="M69.218 23.3989H70.3514V26.5986C70.3514 26.704 70.3777 26.7778 70.4304 26.82C70.4831 26.8569 70.5464 26.878 70.6149 26.878H72.8078V27.7952H70.0983C69.9982 27.7952 69.898 27.7741 69.7979 27.732C69.6977 27.6898 69.6028 27.6371 69.5132 27.5686C69.4289 27.5 69.3551 27.421 69.3024 27.3366C69.2444 27.247 69.218 27.1574 69.218 27.0678V23.4042V23.3989Z" fill="#00ABB1"/>
<path d="M77.2936 24.1317V27.0626C77.2936 27.1575 77.2673 27.2471 77.2093 27.3314C77.1513 27.4211 77.0828 27.5001 76.9985 27.5634C76.9141 27.6319 76.8192 27.6846 76.7138 27.7268C76.6084 27.769 76.5082 27.7901 76.4186 27.7901H74.1467C74.0465 27.7901 73.9463 27.769 73.8462 27.7268C73.746 27.6846 73.6512 27.6319 73.5616 27.5634C73.4772 27.4949 73.4034 27.4158 73.3507 27.3314C73.2927 27.2418 73.2664 27.1522 73.2664 27.0626V24.1317C73.2664 24.0369 73.2927 23.9473 73.3507 23.8629C73.4087 23.7733 73.4772 23.6995 73.5616 23.631C73.6459 23.5624 73.7408 23.5097 73.8462 23.4676C73.9463 23.4254 74.0465 23.4043 74.1467 23.4043H76.4186C76.5135 23.4043 76.6084 23.4254 76.7138 23.4676C76.8192 23.5097 76.9141 23.5624 76.9985 23.631C77.0828 23.6995 77.1566 23.7786 77.2093 23.8629C77.2673 23.9525 77.2936 24.0421 77.2936 24.1317ZM74.3997 24.5903V26.5987C74.3997 26.7042 74.426 26.778 74.4788 26.8201C74.5315 26.857 74.5947 26.8781 74.6633 26.8781H75.9231C75.9811 26.8781 76.0338 26.8518 76.0865 26.8096C76.134 26.7674 76.1603 26.6989 76.1603 26.5987V24.5903C76.1603 24.4902 76.134 24.4217 76.0865 24.3795C76.0391 24.3373 75.9864 24.3162 75.9231 24.311H74.6633C74.5947 24.311 74.5315 24.3321 74.4788 24.369C74.426 24.4059 74.3997 24.4796 74.3997 24.5903Z" fill="#00ABB1"/>
<path d="M81.7795 27.0626C81.7795 27.1575 81.7531 27.2471 81.6952 27.3314C81.6372 27.4211 81.5687 27.5001 81.4843 27.5634C81.4 27.6319 81.3051 27.6846 81.1997 27.7268C81.0942 27.769 80.9941 27.7901 80.9045 27.7901H78.6325C78.5324 27.7901 78.4322 27.769 78.332 27.7268C78.2319 27.6846 78.137 27.6319 78.0474 27.5634C77.963 27.4949 77.8893 27.4158 77.8365 27.3314C77.7786 27.2418 77.7522 27.1522 77.7522 27.0626V24.1317C77.7522 24.0369 77.7786 23.9473 77.8365 23.8629C77.8945 23.7733 77.963 23.6995 78.0474 23.631C78.1317 23.5624 78.2266 23.5097 78.332 23.4676C78.4322 23.4254 78.5324 23.4043 78.6325 23.4043H81.7848V24.3215H79.1544C79.0858 24.3215 79.0226 24.3426 78.9699 24.3795C78.9172 24.4164 78.8908 24.4902 78.8908 24.6009V26.6093C78.8908 26.7147 78.9172 26.7885 78.9699 26.8307C79.0226 26.8676 79.0858 26.8887 79.1544 26.8887H80.4142C80.4722 26.8887 80.5249 26.8623 80.5776 26.8201C80.6251 26.778 80.6514 26.7094 80.6514 26.6093V26.3141C80.6514 26.2087 80.6251 26.1349 80.5724 26.0927C80.5197 26.0558 80.4564 26.0347 80.3879 26.0347H79.9504L79.497 25.1175H80.9097C81.0046 25.1175 81.0995 25.1386 81.2049 25.1808C81.3104 25.2229 81.4052 25.2756 81.4896 25.3442C81.5739 25.4127 81.6477 25.4918 81.7004 25.5761C81.7584 25.6657 81.7848 25.7553 81.7848 25.8449V27.0626H81.7795Z" fill="#00ABB1"/>
<path d="M82.2328 23.3989H83.3661V24.8591C83.3661 24.9645 83.3925 25.0383 83.4452 25.0805C83.4979 25.1174 83.5612 25.1385 83.6297 25.1385H84.8948V23.4042H86.0282V27.0678C86.0282 27.1627 86.0018 27.2523 85.9438 27.3366C85.8858 27.4262 85.8173 27.5053 85.733 27.5686C85.6486 27.6371 85.5537 27.6898 85.4483 27.732C85.3429 27.7741 85.2427 27.7952 85.1531 27.7952H82.2275V26.878H84.6313C84.6998 26.878 84.7631 26.8569 84.8158 26.82C84.8685 26.7831 84.8948 26.7093 84.8948 26.5986V26.0504H83.1078C83.0077 26.0504 82.9075 26.0293 82.8074 25.9872C82.7072 25.945 82.6123 25.8923 82.5227 25.8237C82.4384 25.7552 82.3646 25.6761 82.3119 25.5918C82.2539 25.5022 82.2275 25.4126 82.2275 25.323V23.4042L82.2328 23.3989Z" fill="#00ABB1"/>
<path d="M89.6443 27.7952H88.511V23.3989H91.6632C91.7581 23.3989 91.853 23.42 91.9584 23.4622C92.0639 23.5043 92.1588 23.5571 92.2431 23.6256C92.3274 23.6941 92.4012 23.7732 92.4539 23.8575C92.5119 23.9471 92.5383 24.0368 92.5383 24.1264V25.3124C92.5383 25.4073 92.5119 25.4969 92.4539 25.5812C92.396 25.6709 92.3274 25.7499 92.2431 25.8132C92.1588 25.8817 92.0639 25.9344 91.9584 25.9766C91.853 26.0188 91.7529 26.0399 91.6632 26.0399H90.4456L89.9817 25.1226H91.1677C91.2257 25.1226 91.2784 25.0963 91.3312 25.0541C91.3786 25.0119 91.405 24.9434 91.405 24.8433V24.5797C91.405 24.4795 91.3786 24.411 91.3312 24.3688C91.2837 24.3267 91.231 24.3056 91.1677 24.3003H89.6443V27.7794V27.7952Z" fill="#00ABB1"/>
<path d="M92.9968 23.3989H94.1302V26.5986C94.1302 26.704 94.1565 26.7778 94.2092 26.82C94.2619 26.8569 94.3252 26.878 94.3937 26.878H96.5866V27.7952H93.8771C93.777 27.7952 93.6768 27.7741 93.5767 27.732C93.4765 27.6898 93.3816 27.6371 93.292 27.5686C93.2077 27.5 93.1339 27.421 93.0812 27.3366C93.0232 27.247 92.9968 27.1574 92.9968 27.0678V23.4042V23.3989Z" fill="#00ABB1"/>
<path d="M98.1733 26.5988C98.1733 26.7042 98.1996 26.7781 98.2523 26.8202C98.3051 26.8571 98.3683 26.8782 98.4368 26.8782H100.714V27.7954H97.915C97.8148 27.7954 97.7147 27.7743 97.6145 27.7322C97.5144 27.69 97.4195 27.6373 97.3299 27.5688C97.2455 27.5002 97.1717 27.4212 97.119 27.3368C97.061 27.2472 97.0347 27.1576 97.0347 27.068V24.1371C97.0347 24.0422 97.061 23.9526 97.119 23.8683C97.177 23.7787 97.2455 23.7049 97.3299 23.6363C97.4142 23.5678 97.5091 23.5151 97.6145 23.4729C97.7147 23.4308 97.8148 23.4097 97.915 23.4097H100.714V24.3269H98.4368C98.3683 24.3269 98.3051 24.348 98.2523 24.3849C98.1996 24.4218 98.1733 24.4956 98.1733 24.6063V26.6146V26.5988Z" fill="#00ABB1"/>
<path d="M38.7231 20.5159V10.047H35.5286V20.5159H32.1128V7.29541H46.1082C46.3876 7.29541 46.6828 7.35867 46.999 7.48519C47.3153 7.6117 47.6 7.77511 47.8583 7.98069C48.1166 8.18628 48.3274 8.42348 48.4961 8.68705C48.6648 8.95062 48.7491 9.22472 48.7491 9.5041V20.5212H45.3333V10.8905C45.3333 10.5953 45.2595 10.3897 45.1119 10.2632C44.9643 10.1367 44.8062 10.0681 44.6269 10.0523H42.1389V20.5212H38.7231V20.5159Z" fill="#00ABB1"/>
<path d="M51.3269 19.9678C51.3269 19.9362 51.3269 19.8782 51.3374 19.7938C51.3427 19.7042 51.348 19.6568 51.348 19.641L55.4702 9.06139C55.6916 8.50263 56.0658 8.06511 56.6035 7.74883C57.1412 7.43255 57.7474 7.27441 58.4221 7.27441C58.7173 7.27441 59.0125 7.32185 59.313 7.41673C59.6134 7.51162 59.8981 7.63814 60.1617 7.80155C60.4252 7.96496 60.6572 8.15473 60.8575 8.37612C61.0578 8.59752 61.2001 8.82418 61.2897 9.06139L65.7176 20.5213H62.0804L58.3799 10.7377L55.7337 17.7696H58.9071L59.9666 20.5265H51.7908C51.5536 20.5265 51.4218 20.4738 51.3849 20.3737C51.348 20.2735 51.3322 20.1365 51.3322 19.9783L51.3269 19.9678Z" fill="#00ABB1"/>
<path d="M69.3338 10.0523H65.5437V7.29541H76.5397V10.0523H72.7496V20.5212H69.3338V10.0523Z" fill="#00ABB1"/>
<path d="M82.6438 20.5159H79.228V7.29541H88.7059C88.9853 7.29541 89.2805 7.35867 89.5967 7.48519C89.913 7.6117 90.1977 7.77511 90.456 7.98069C90.7143 8.18628 90.9251 8.42348 91.0938 8.68705C91.2625 8.95062 91.3468 9.22472 91.3468 9.5041V13.0728C91.3468 13.3522 91.2625 13.6263 91.0938 13.8899C90.9251 14.1534 90.709 14.3906 90.456 14.5962C90.1977 14.8018 89.913 14.9652 89.5967 15.0917C89.2805 15.2182 88.9853 15.2815 88.7059 15.2815L91.3732 20.5265H87.7149L83.6612 12.5299H87.2299C87.4039 12.514 87.5673 12.4455 87.7149 12.319C87.8625 12.1925 87.9363 11.9869 87.9363 11.6917V10.901C87.9363 10.6058 87.8625 10.4002 87.7149 10.2737C87.5673 10.1472 87.4091 10.0787 87.2299 10.0629H82.6438V20.5317V20.5159Z" fill="#00ABB1"/>
<path d="M94.0352 7.29541H97.451V20.5159H94.0352V7.29541Z" fill="#00ABB1"/>
<path d="M99.918 20.5159L103.993 13.9057L99.918 7.29541H103.777L105.959 10.7745L108.141 7.29541H112L107.899 13.9057L112 20.5159H108.141L105.959 17.0579L103.777 20.5159H99.918Z" fill="#00ABB1"/>
<path d="M15.8034 11.0752L13.8951 12.7884L11.9869 11.0752H10.3792L10.901 11.5391L13.8951 14.2011L16.8893 11.5391L17.4111 11.0752H15.8034Z" fill="#00ABB1"/>
<path d="M17.1739 11.966L13.8951 14.9021L10.6216 11.966L9.56738 11.9502V17.3691H10.6216V13.5369L13.8951 16.4466L17.1739 13.5369V17.3691H18.2229V11.9502L17.1739 11.966Z" fill="#00ABB1"/>
<path d="M13.8952 2.18234C13.8952 0.975205 12.9147 0 11.7128 0C10.511 0 9.53052 0.980476 9.53052 2.18234C9.53052 3.3842 10.511 4.36466 11.7128 4.36466C12.9147 4.36466 13.8952 3.3842 13.8952 2.18234Z" fill="#00ABB1"/>
<path d="M11.713 7.89674C12.4146 7.89674 12.9834 7.32797 12.9834 6.62635C12.9834 5.92473 12.4146 5.35596 11.713 5.35596C11.0114 5.35596 10.4426 5.92473 10.4426 6.62635C10.4426 7.32797 11.0114 7.89674 11.713 7.89674Z" fill="#00ABB1"/>
<path d="M11.713 10.5216C12.1671 10.5216 12.5353 10.1534 12.5353 9.69928C12.5353 9.24512 12.1671 8.87695 11.713 8.87695C11.2588 8.87695 10.8906 9.24512 10.8906 9.69928C10.8906 10.1534 11.2588 10.5216 11.713 10.5216Z" fill="#00ABB1"/>
<path d="M18.2653 25.6081C18.2653 26.8153 17.2848 27.7904 16.083 27.7904C14.8811 27.7904 13.9006 26.81 13.9006 25.6081C13.9006 24.4063 14.8811 23.4258 16.083 23.4258C17.2848 23.4258 18.2653 24.4063 18.2653 25.6081Z" fill="#00ABB1"/>
<path d="M17.3533 21.1698C17.3533 21.8709 16.784 22.4402 16.0829 22.4402C15.3818 22.4402 14.8125 21.8709 14.8125 21.1698C14.8125 20.4687 15.3818 19.8994 16.0829 19.8994C16.784 19.8994 17.3533 20.4687 17.3533 21.1698Z" fill="#00ABB1"/>
<path d="M16.0828 18.9137C16.537 18.9137 16.9052 18.5455 16.9052 18.0914C16.9052 17.6372 16.537 17.269 16.0828 17.269C15.6287 17.269 15.2605 17.6372 15.2605 18.0914C15.2605 18.5455 15.6287 18.9137 16.0828 18.9137Z" fill="#00ABB1"/>
<path d="M5.614 5.6141C4.76004 4.76014 3.37894 4.76014 2.52499 5.6141C1.67103 6.46806 1.67103 7.84915 2.52499 8.70311C3.37894 9.55707 4.76004 9.55707 5.614 8.70311C6.46796 7.84915 6.46796 6.46806 5.614 5.6141Z" fill="#00ABB1"/>
<path d="M8.10714 9.39897C7.61164 8.90347 6.80512 8.90347 6.30962 9.39897C5.81411 9.89448 5.81411 10.701 6.30962 11.1965C6.80512 11.692 7.61164 11.692 8.10714 11.1965C8.60265 10.701 8.60265 9.89448 8.10714 9.39897Z" fill="#00ABB1"/>
<path d="M25.2707 19.0877C26.1247 19.9417 26.1247 21.3228 25.2707 22.1767C24.4168 23.0307 23.0357 23.0307 22.1817 22.1767C21.3278 21.3228 21.3278 19.9417 22.1817 19.0877C23.0357 18.2338 24.4168 18.2338 25.2707 19.0877Z" fill="#00ABB1"/>
<path d="M21.4807 16.5943C21.9762 17.0898 21.9762 17.8963 21.4807 18.3918C20.9852 18.8873 20.1787 18.8873 19.6832 18.3918C19.1876 17.8963 19.1876 17.0898 19.6832 16.5943C20.1787 16.0988 20.9852 16.0988 21.4807 16.5943Z" fill="#00ABB1"/>
<path d="M2.18234 13.8955C0.975205 13.8955 0 14.876 0 16.0778C0 17.2797 0.980476 18.2602 2.18234 18.2602C3.3842 18.2602 4.36466 17.2797 4.36466 16.0778C4.36466 14.876 3.3842 13.8955 2.18234 13.8955Z" fill="#00ABB1"/>
<path d="M6.62611 17.3533C7.32772 17.3533 7.8965 16.7845 7.8965 16.0829C7.8965 15.3813 7.32772 14.8125 6.62611 14.8125C5.92449 14.8125 5.35571 15.3813 5.35571 16.0829C5.35571 16.7845 5.92449 17.3533 6.62611 17.3533Z" fill="#00ABB1"/>
<path d="M25.6081 9.52539C26.8153 9.52539 27.7904 10.5059 27.7904 11.7077C27.7904 12.9096 26.81 13.8901 25.6081 13.8901C24.4063 13.8901 23.4258 12.9096 23.4258 11.7077C23.4258 10.5059 24.4063 9.52539 25.6081 9.52539Z" fill="#00ABB1"/>
<path d="M21.1696 10.4424C21.8707 10.4424 22.44 11.0117 22.44 11.7128C22.44 12.4139 21.8707 12.9832 21.1696 12.9832C20.4685 12.9832 19.8992 12.4139 19.8992 11.7128C19.8992 11.0117 20.4685 10.4424 21.1696 10.4424Z" fill="#00ABB1"/>
<path d="M5.6141 22.1771C4.76014 23.031 4.76014 24.4121 5.6141 25.2661C6.46806 26.12 7.84914 26.12 8.70309 25.2661C9.55705 24.4121 9.55705 23.031 8.70309 22.1771C7.84914 21.3231 6.46806 21.3231 5.6141 22.1771Z" fill="#00ABB1"/>
<path d="M9.4041 19.6836C8.90859 20.1791 8.90859 20.9857 9.4041 21.4812C9.89961 21.9767 10.7061 21.9767 11.2016 21.4812C11.6971 20.9857 11.6971 20.1791 11.2016 19.6836C10.7061 19.1881 9.89961 19.1881 9.4041 19.6836Z" fill="#00ABB1"/>
<path d="M12.4774 19.2301C12.9315 19.2301 13.2997 18.8619 13.2997 18.4078C13.2997 17.9536 12.9315 17.5854 12.4774 17.5854C12.0232 17.5854 11.655 17.9536 11.655 18.4078C11.655 18.8619 12.0232 19.2301 12.4774 19.2301Z" fill="#00ABB1"/>
<path d="M19.0875 2.52523C19.9414 1.67128 21.3225 1.67128 22.1765 2.52523C23.0304 3.37919 23.0304 4.76027 22.1765 5.61423C21.3225 6.46818 19.9414 6.46818 19.0875 5.61423C18.2335 4.76027 18.2335 3.37919 19.0875 2.52523Z" fill="#00ABB1"/>
<path d="M17.4955 8.48169C18.1971 8.48169 18.7659 7.91291 18.7659 7.2113C18.7659 6.50968 18.1971 5.94092 17.4955 5.94092C16.7939 5.94092 16.2251 6.50968 16.2251 7.2113C16.2251 7.91291 16.7939 8.48169 17.4955 8.48169Z" fill="#00ABB1"/>
<path d="M15.3184 10.2057C15.7726 10.2057 16.1408 9.83754 16.1408 9.38338C16.1408 8.92922 15.7726 8.56104 15.3184 8.56104C14.8643 8.56104 14.4961 8.92922 14.4961 9.38338C14.4961 9.83754 14.8643 10.2057 15.3184 10.2057Z" fill="#00ABB1"/>
</svg>
